<svg xmlns="http://www.w3.org/2000/svg" id="render" viewBox="40 40 320 320"><defs><g class="piece" id="king_white" transform="translate(-22.5,-22.5)"><g class="darkStroke" style="fill:none; fill-opacity:1; fill-rule:evenodd; stroke-width:1.5; stroke-linecap:round;stroke-linejoin:round;stroke-miterlimit:4; stroke-dasharray:none; stroke-opacity:1;"><path d="M 22.5,11.63 L 22.5,6" style="stroke-linejoin:miter;"/><path d="M 20,8 L 25,8" style="stroke-linejoin:miter;"/><path d="M 22.5,25 C 22.5,25 27,17.5 25.5,14.5 C 25.5,14.5 24.5,12 22.5,12 C 20.5,12 19.5,14.5 19.5,14.5 C 18,17.5 22.5,25 22.5,25" class="lightFill" style="stroke-linecap:butt; stroke-linejoin:miter;"/><path d="M 11.5,37 C 17,40.5 27,40.5 32.5,37 L 32.5,30 C 32.5,30 41.5,25.5 38.5,19.5 C 34.5,13 25,16 22.5,23.5 L 22.5,27 L 22.5,23.5 C 19,16 9.5,13 6.5,19.5 C 3.5,25.5 11.5,29.5 11.5,29.5 L 11.5,37 z " class="lightFill"/><path d="M 11.5,30 C 17,27 27,27 32.5,30"/><path d="M 11.5,33.5 C 17,30.5 27,30.5 32.5,33.5"/><path d="M 11.5,37 C 17,34 27,34 32.5,37"/></g></g><g class="piece" id="king_black" transform="translate(-22.5,-22.5)"><g class="darkStroke" style="fill:none; fill-opacity:1; fill-rule:evenodd; stroke-width:1.5; stroke-linecap:round;stroke-linejoin:round;stroke-miterlimit:4; stroke-dasharray:none; stroke-opacity:1;"><path d="M 22.5,11.63 L 22.5,6" style="stroke-linejoin:miter;" id="path6570"/><path d="M 22.5,25 C 22.5,25 27,17.5 25.5,14.5 C 25.5,14.5 24.5,12 22.5,12 C 20.5,12 19.5,14.5 19.5,14.5 C 18,17.5 22.5,25 22.5,25" class="darkFill" style="fill-opacity:1; stroke-linecap:butt; stroke-linejoin:miter;"/><path d="M 11.5,37 C 17,40.5 27,40.5 32.5,37 L 32.5,30 C 32.5,30 41.5,25.5 38.5,19.5 C 34.5,13 25,16 22.5,23.5 L 22.5,27 L 22.5,23.5 C 19,16 9.5,13 6.5,19.5 C 3.5,25.5 11.5,29.5 11.5,29.5 L 11.5,37 z " class="darkFill"/><path d="M 20,8 L 25,8" style="stroke-linejoin:miter;"/><path d="M 32,29.5 C 32,29.5 40.5,25.5 38.03,19.85 C 34.15,14 25,18 22.5,24.5 L 22.51,26.6 L 22.5,24.5 C 20,18 9.906,14 6.997,19.85 C 4.5,25.5 11.85,28.85 11.85,28.85" class="lightStroke"/><path d="M 11.5,30 C 17,27 27,27 32.5,30 M 11.5,33.5 C 17,30.5 27,30.5 32.5,33.5 M 11.5,37 C 17,34 27,34 32.5,37" class="lightStroke"/></g></g><g class="piece" id="queen_white" transform="translate(-22.5,-22.5)"><g class="lightFill darkStroke" style="opacity:1; fill-opacity:1; fill-rule:evenodd; stroke-width:1.5; stroke-linecap:round;stroke-linejoin:round;stroke-miterlimit:4; stroke-dasharray:none; stroke-opacity:1;"><path d="M 9 13 A 2 2 0 1 1  5,13 A 2 2 0 1 1  9 13 z" transform="translate(-1,-1)"/><path d="M 9 13 A 2 2 0 1 1  5,13 A 2 2 0 1 1  9 13 z" transform="translate(15.5,-5.5)"/><path d="M 9 13 A 2 2 0 1 1  5,13 A 2 2 0 1 1  9 13 z" transform="translate(32,-1)"/><path d="M 9 13 A 2 2 0 1 1  5,13 A 2 2 0 1 1  9 13 z" transform="translate(7,-4.5)"/><path d="M 9 13 A 2 2 0 1 1  5,13 A 2 2 0 1 1  9 13 z" transform="translate(24,-4)"/><path d="M 9,26 C 17.5,24.5 30,24.5 36,26 L 38,14 L 31,25 L 31,11 L 25.5,24.5 L 22.5,9.5 L 19.5,24.5 L 14,10.5 L 14,25 L 7,14 L 9,26 z " style="stroke-linecap:butt;"/><path d="M 9,26 C 9,28 10.5,28 11.5,30 C 12.5,31.5 12.5,31 12,33.5 C 10.5,34.5 10.5,36 10.5,36 C 9,37.5 11,38.5 11,38.5 C 17.5,39.5 27.5,39.5 34,38.5 C 34,38.5 35.5,37.5 34,36 C 34,36 34.5,34.5 33,33.5 C 32.5,31 32.5,31.5 33.5,30 C 34.5,28 36,28 36,26 C 27.5,24.5 17.5,24.5 9,26 z " style="stroke-linecap:butt;"/><path d="M 11.5,30 C 15,29 30,29 33.5,30" style="fill:none;"/><path d="M 12,33.5 C 18,32.5 27,32.5 33,33.5" style="fill:none;"/></g></g><g class="piece" id="queen_black" transform="translate(-22.5,-22.5)"><g class="darkFill darkStroke" style="opacity:1; fill-opacity:1; fill-rule:evenodd; stroke-width:1.5; stroke-linecap:round;stroke-linejoin:round;stroke-miterlimit:4; stroke-dasharray:none; stroke-opacity:1;"><g style="stroke:none;"><circle cx="6" cy="12" r="2.75"/><circle cx="14" cy="9" r="2.75"/><circle cx="22.5" cy="8" r="2.75"/><circle cx="31" cy="9" r="2.75"/><circle cx="39" cy="12" r="2.75"/></g><path d="M 9,26 C 17.5,24.5 30,24.5 36,26 L 38.5,13.5 L 31,25 L 30.7,10.9 L 25.5,24.5 L 22.5,10 L 19.5,24.5 L 14.3,10.9 L 14,25 L 6.5,13.5 L 9,26 z" style="stroke-linecap:butt;"/><path d="M 9,26 C 9,28 10.5,28 11.5,30 C 12.5,31.5 12.5,31 12,33.5 C 10.5,34.5 10.5,36 10.5,36 C 9,37.5 11,38.5 11,38.5 C 17.5,39.5 27.5,39.5 34,38.5 C 34,38.5 35.5,37.5 34,36 C 34,36 34.5,34.5 33,33.5 C 32.5,31 32.5,31.5 33.5,30 C 34.5,28 36,28 36,26 C 27.5,24.5 17.5,24.5 9,26 z" style="stroke-linecap:butt;"/><path d="M 11,38.5 A 35,35 1 0 0 34,38.5" style="fill:none; stroke-linecap:butt;"/><path d="M 11,29 A 35,35 1 0 1 34,29" class="lightStroke" style="fill:none;"/><path d="M 12.5,31.5 L 32.5,31.5" class="lightStroke" style="fill:none;"/><path d="M 11.5,34.5 A 35,35 1 0 0 33.5,34.5" class="lightStroke" style="fill:none;"/><path d="M 10.5,37.5 A 35,35 1 0 0 34.5,37.5" class="lightStroke" style="fill:none;"/></g></g><g class="piece" id="rook_white" transform="translate(-22.5,-22.5)"><g class="lightFill darkStroke" style="opacity:1; fill-opacity:1; fill-rule:evenodd; stroke-width:1.5; stroke-linecap:round;stroke-linejoin:round;stroke-miterlimit:4; stroke-dasharray:none; stroke-opacity:1;"><path d="M 9,39 L 36,39 L 36,36 L 9,36 L 9,39 z " style="stroke-linecap:butt;"/><path d="M 12,36 L 12,32 L 33,32 L 33,36 L 12,36 z " style="stroke-linecap:butt;"/><path d="M 11,14 L 11,9 L 15,9 L 15,11 L 20,11 L 20,9 L 25,9 L 25,11 L 30,11 L 30,9 L 34,9 L 34,14" style="stroke-linecap:butt;"/><path d="M 34,14 L 31,17 L 14,17 L 11,14"/><path d="M 31,17 L 31,29.5 L 14,29.5 L 14,17" style="stroke-linecap:butt; stroke-linejoin:miter;"/><path d="M 31,29.5 L 32.5,32 L 12.5,32 L 14,29.5"/><path d="M 11,14 L 34,14" style="fill:none; stroke-linejoin:miter;"/></g></g><g class="piece" id="rook_black" transform="translate(-22.5,-22.5)"><g class="darkFill darkStroke" style="opacity:1; fill-opacity:1; fill-rule:evenodd; stroke-width:1.5; stroke-linecap:round;stroke-linejoin:round;stroke-miterlimit:4; stroke-dasharray:none; stroke-opacity:1;"><path d="M 9,39 L 36,39 L 36,36 L 9,36 L 9,39 z " style="stroke-linecap:butt;"/><path d="M 12.5,32 L 14,29.5 L 31,29.5 L 32.5,32 L 12.5,32 z " style="stroke-linecap:butt;"/><path d="M 12,36 L 12,32 L 33,32 L 33,36 L 12,36 z " style="stroke-linecap:butt;"/><path d="M 14,29.5 L 14,16.5 L 31,16.5 L 31,29.5 L 14,29.5 z " style="stroke-linecap:butt;stroke-linejoin:miter;"/><path d="M 14,16.5 L 11,14 L 34,14 L 31,16.5 L 14,16.5 z " style="stroke-linecap:butt;"/><path d="M 11,14 L 11,9 L 15,9 L 15,11 L 20,11 L 20,9 L 25,9 L 25,11 L 30,11 L 30,9 L 34,9 L 34,14 L 11,14 z " style="stroke-linecap:butt;"/><path class="lightStroke" d="M 12,35.5 L 33,35.5 L 33,35.5" style="fill:none; stroke-width:1; stroke-linejoin:miter;"/><path class="lightStroke" d="M 13,31.5 L 32,31.5" style="fill:none; stroke-width:1; stroke-linejoin:miter;"/><path class="lightStroke" d="M 14,29.5 L 31,29.5" style="fill:none; stroke-width:1; stroke-linejoin:miter;"/><path class="lightStroke" d="M 14,16.5 L 31,16.5" style="fill:none; stroke-width:1; stroke-linejoin:miter;"/><path class="lightStroke" d="M 11,14 L 34,14" style="fill:none; stroke-width:1; stroke-linejoin:miter;"/></g></g><g class="piece" id="bishop_white" transform="translate(-22.5,-22.5)"><g class="darkStroke" style="opacity:1; fill:none; fill-rule:evenodd; fill-opacity:1; stroke-width:1.5; stroke-linecap:round; stroke-linejoin:round; stroke-miterlimit:4; stroke-dasharray:none; stroke-opacity:1;"><g class="lightFill" style="stroke-linecap:butt;"><path d="M 9,36 C 12.39,35.03 19.11,36.43 22.5,34 C 25.89,36.43 32.61,35.03 36,36 C 36,36 37.65,36.54 39,38 C 38.32,38.97 37.35,38.99 36,38.5 C 32.61,37.53 25.89,38.96 22.5,37.5 C 19.11,38.96 12.39,37.53 9,38.5 C 7.646,38.99 6.677,38.97 6,38 C 7.354,36.06 9,36 9,36 z"/><path d="M 15,32 C 17.5,34.5 27.5,34.5 30,32 C 30.5,30.5 30,30 30,30 C 30,27.5 27.5,26 27.5,26 C 33,24.5 33.5,14.5 22.5,10.5 C 11.5,14.5 12,24.5 17.5,26 C 17.5,26 15,27.5 15,30 C 15,30 14.5,30.5 15,32 z"/><path d="M 25 8 A 2.5 2.5 0 1 1  20,8 A 2.5 2.5 0 1 1  25 8 z"/></g><path d="M 17.5,26 L 27.5,26 M 15,30 L 30,30 M 22.5,15.5 L 22.5,20.5 M 20,18 L 25,18" style="fill:none; stroke-linejoin:miter;"/></g></g><g class="piece" id="bishop_black" transform="translate(-22.5,-22.5)"><g class="darkStroke" style="opacity:1; fill:none; fill-rule:evenodd; fill-opacity:1; stroke-width:1.5; stroke-linecap:round; stroke-linejoin:round; stroke-miterlimit:4; stroke-dasharray:none; stroke-opacity:1;"><g class="darkFill" style="stroke-linecap:butt;"><path d="M 9,36 C 12.39,35.03 19.11,36.43 22.5,34 C 25.89,36.43 32.61,35.03 36,36 C 36,36 37.65,36.54 39,38 C 38.32,38.97 37.35,38.99 36,38.5 C 32.61,37.53 25.89,38.96 22.5,37.5 C 19.11,38.96 12.39,37.53 9,38.5 C 7.646,38.99 6.677,38.97 6,38 C 7.354,36.06 9,36 9,36 z"/><path d="M 15,32 C 17.5,34.5 27.5,34.5 30,32 C 30.5,30.5 30,30 30,30 C 30,27.5 27.5,26 27.5,26 C 33,24.5 33.5,14.5 22.5,10.5 C 11.5,14.5 12,24.5 17.5,26 C 17.5,26 15,27.5 15,30 C 15,30 14.5,30.5 15,32 z"/><path d="M 25 8 A 2.5 2.5 0 1 1  20,8 A 2.5 2.5 0 1 1  25 8 z"/></g><path class="lightStroke" d="M 17.5,26 L 27.5,26 M 15,30 L 30,30 M 22.5,15.5 L 22.5,20.5 M 20,18 L 25,18" style="fill:none; stroke-linejoin:miter;"/></g></g><g class="piece" id="knight_white" transform="translate(-22.5,-22.5)"><g class="darkStroke" style="opacity:1; fill:none; fill-opacity:1; fill-rule:evenodd; stroke-width:1.5; stroke-linecap:round;stroke-linejoin:round;stroke-miterlimit:4; stroke-dasharray:none; stroke-opacity:1;"><path class="lightFill" d="M 22,10 C 32.5,11 38.5,18 38,39 L 15,39 C 15,30 25,32.5 23,18"/><path class="lightFill" d="M 24,18 C 24.38,20.91 18.45,25.37 16,27 C 13,29 13.18,31.34 11,31 C 9.958,30.06 12.41,27.96 11,28 C 10,28 11.19,29.23 10,30 C 9,30 5.997,31 6,26 C 6,24 12,14 12,14 C 12,14 13.89,12.1 14,10.5 C 13.27,9.506 13.5,8.5 13.5,7.5 C 14.5,6.5 16.5,10 16.5,10 L 18.5,10 C 18.5,10 19.28,8.008 21,7 C 22,7 22,10 22,10"/><path class="darkFill" d="M 9.5 25.5 A 0.5 0.5 0 1 1 8.5,25.5 A 0.5 0.5 0 1 1 9.5 25.5 z"/><path class="darkFill" d="M 15 15.5 A 0.5 1.5 0 1 1  14,15.5 A 0.5 1.5 0 1 1  15 15.5 z" transform="matrix(0.866,0.5,-0.5,0.866,9.693,-5.173)"/></g></g><g class="piece" id="knight_black" transform="translate(-22.5,-22.5)"><g class="darkStroke" style="opacity:1; fill:none; fill-opacity:1; fill-rule:evenodd; stroke-width:1.5; stroke-linecap:round;stroke-linejoin:round;stroke-miterlimit:4; stroke-dasharray:none; stroke-opacity:1;"><path class="darkFill" d="M 22,10 C 32.5,11 38.5,18 38,39 L 15,39 C 15,30 25,32.5 23,18"/><path class="darkFill" d="M 24,18 C 24.38,20.91 18.45,25.37 16,27 C 13,29 13.18,31.34 11,31 C 9.958,30.06 12.41,27.96 11,28 C 10,28 11.19,29.23 10,30 C 9,30 5.997,31 6,26 C 6,24 12,14 12,14 C 12,14 13.89,12.1 14,10.5 C 13.27,9.506 13.5,8.5 13.5,7.5 C 14.5,6.5 16.5,10 16.5,10 L 18.5,10 C 18.5,10 19.28,8.008 21,7 C 22,7 22,10 22,10"/><path class="lightFill lightStroke" d="M 9.5 25.5 A 0.5 0.5 0 1 1 8.5,25.5 A 0.5 0.5 0 1 1 9.5 25.5 z"/><path class="lightFill lightStroke" d="M 15 15.5 A 0.5 1.5 0 1 1  14,15.5 A 0.5 1.5 0 1 1  15 15.5 z" transform="matrix(0.866,0.5,-0.5,0.866,9.693,-5.173)"/><path class="lightFill" d="M 24.55,10.4 L 24.1,11.85 L 24.6,12 C 27.75,13 30.25,14.49 32.5,18.75 C 34.75,23.01 35.75,29.06 35.25,39 L 35.2,39.5 L 37.45,39.5 L 37.5,39 C 38,28.94 36.62,22.15 34.25,17.66 C 31.88,13.17 28.46,11.02 25.06,10.5 L 24.55,10.4 z " style="stroke:none;"/></g></g><g class="piece" id="pawn_white" transform="translate(-22.5,-22.5)"><path class="lightFill darkStroke" d="M 22,9 C 19.79,9 18,10.79 18,13 C 18,13.89 18.29,14.71 18.78,15.38 C 16.83,16.5 15.5,18.59 15.5,21 C 15.5,23.03 16.44,24.84 17.91,26.03 C 14.91,27.09 10.5,31.58 10.5,39.5 L 33.5,39.5 C 33.5,31.58 29.09,27.09 26.09,26.03 C 27.56,24.84 28.5,23.03 28.5,21 C 28.5,18.59 27.17,16.5 25.22,15.38 C 25.71,14.71 26,13.89 26,13 C 26,10.79 24.21,9 22,9 z " style="opacity:1; fill-opacity:1; fill-rule:nonzero; stroke-width:1.5; stroke-linecap:round; stroke-linejoin:miter; stroke-miterlimit:4; stroke-dasharray:none; stroke-opacity:1;"/></g><g class="piece" id="pawn_black" transform="translate(-22.5,-22.5)"><path class="darkFill darkStroke" d="M 22,9 C 19.79,9 18,10.79 18,13 C 18,13.89 18.29,14.71 18.78,15.38 C 16.83,16.5 15.5,18.59 15.5,21 C 15.5,23.03 16.44,24.84 17.91,26.03 C 14.91,27.09 10.5,31.58 10.5,39.5 L 33.5,39.5 C 33.5,31.58 29.09,27.09 26.09,26.03 C 27.56,24.84 28.5,23.03 28.5,21 C 28.5,18.59 27.17,16.5 25.22,15.38 C 25.71,14.71 26,13.89 26,13 C 26,10.79 24.21,9 22,9 z " style="opacity:1; fill-opacity:1; fill-rule:nonzero;; stroke-width:1.5; stroke-linecap:round; stroke-linejoin:miter; stroke-miterlimit:4; stroke-dasharray:none; stroke-opacity:1;"/></g></defs><path id="A8" class="cell dark" d="M60 60 m-20 -20 l41 0 l0 41 l-41 0 Z"/><path id="B8" class="cell light" d="M100 60 m-20 -20 l41 0 l0 41 l-41 0 Z"/><path id="C8" class="cell dark" d="M140 60 m-20 -20 l41 0 l0 41 l-41 0 Z"/><path id="D8" class="cell light" d="M180 60 m-20 -20 l41 0 l0 41 l-41 0 Z"/><path id="E8" class="cell dark" d="M220 60 m-20 -20 l41 0 l0 41 l-41 0 Z"/><path id="F8" class="cell light" d="M260 60 m-20 -20 l41 0 l0 41 l-41 0 Z"/><path id="G8" class="cell dark" d="M300 60 m-20 -20 l41 0 l0 41 l-41 0 Z"/><path id="H8" class="cell light" d="M340 60 m-20 -20 l40 0 l0 41 l-40 0 Z"/><path id="A7" class="cell light" d="M60 100 m-20 -20 l41 0 l0 41 l-41 0 Z"/><path id="B7" class="cell dark" d="M100 100 m-20 -20 l41 0 l0 41 l-41 0 Z"/><path id="C7" class="cell light" d="M140 100 m-20 -20 l41 0 l0 41 l-41 0 Z"/><path id="D7" class="cell dark" d="M180 100 m-20 -20 l41 0 l0 41 l-41 0 Z"/><path id="E7" class="cell light" d="M220 100 m-20 -20 l41 0 l0 41 l-41 0 Z"/><path id="F7" class="cell dark" d="M260 100 m-20 -20 l41 0 l0 41 l-41 0 Z"/><path id="G7" class="cell light" d="M300 100 m-20 -20 l41 0 l0 41 l-41 0 Z"/><path id="H7" class="cell dark" d="M340 100 m-20 -20 l40 0 l0 41 l-40 0 Z"/><path id="A6" class="cell dark" d="M60 140 m-20 -20 l41 0 l0 41 l-41 0 Z"/><path id="B6" class="cell light" d="M100 140 m-20 -20 l41 0 l0 41 l-41 0 Z"/><path id="C6" class="cell dark" d="M140 140 m-20 -20 l41 0 l0 41 l-41 0 Z"/><path id="D6" class="cell light" d="M180 140 m-20 -20 l41 0 l0 41 l-41 0 Z"/><path id="E6" class="cell dark" d="M220 140 m-20 -20 l41 0 l0 41 l-41 0 Z"/><path id="F6" class="cell light" d="M260 140 m-20 -20 l41 0 l0 41 l-41 0 Z"/><path id="G6" class="cell dark" d="M300 140 m-20 -20 l41 0 l0 41 l-41 0 Z"/><path id="H6" class="cell light" d="M340 140 m-20 -20 l40 0 l0 41 l-40 0 Z"/><path id="A5" class="cell light" d="M60 180 m-20 -20 l41 0 l0 41 l-41 0 Z"/><path id="B5" class="cell dark" d="M100 180 m-20 -20 l41 0 l0 41 l-41 0 Z"/><path id="C5" class="cell light" d="M140 180 m-20 -20 l41 0 l0 41 l-41 0 Z"/><path id="D5" class="cell dark" d="M180 180 m-20 -20 l41 0 l0 41 l-41 0 Z"/><path id="E5" class="cell light" d="M220 180 m-20 -20 l41 0 l0 41 l-41 0 Z"/><path id="F5" class="cell dark" d="M260 180 m-20 -20 l41 0 l0 41 l-41 0 Z"/><path id="G5" class="cell light" d="M300 180 m-20 -20 l41 0 l0 41 l-41 0 Z"/><path id="H5" class="cell dark" d="M340 180 m-20 -20 l40 0 l0 41 l-40 0 Z"/><path id="A4" class="cell dark" d="M60 220 m-20 -20 l41 0 l0 41 l-41 0 Z"/><path id="B4" class="cell light" d="M100 220 m-20 -20 l41 0 l0 41 l-41 0 Z"/><path id="C4" class="cell dark" d="M140 220 m-20 -20 l41 0 l0 41 l-41 0 Z"/><path id="D4" class="cell light" d="M180 220 m-20 -20 l41 0 l0 41 l-41 0 Z"/><path id="E4" class="cell dark" d="M220 220 m-20 -20 l41 0 l0 41 l-41 0 Z"/><path id="F4" class="cell light" d="M260 220 m-20 -20 l41 0 l0 41 l-41 0 Z"/><path id="G4" class="cell dark" d="M300 220 m-20 -20 l41 0 l0 41 l-41 0 Z"/><path id="H4" class="cell light" d="M340 220 m-20 -20 l40 0 l0 41 l-40 0 Z"/><path id="A3" class="cell light" d="M60 260 m-20 -20 l41 0 l0 41 l-41 0 Z"/><path id="B3" class="cell dark" d="M100 260 m-20 -20 l41 0 l0 41 l-41 0 Z"/><path id="C3" class="cell light" d="M140 260 m-20 -20 l41 0 l0 41 l-41 0 Z"/><path id="D3" class="cell dark" d="M180 260 m-20 -20 l41 0 l0 41 l-41 0 Z"/><path id="E3" class="cell light" d="M220 260 m-20 -20 l41 0 l0 41 l-41 0 Z"/><path id="F3" class="cell dark" d="M260 260 m-20 -20 l41 0 l0 41 l-41 0 Z"/><path id="G3" class="cell light" d="M300 260 m-20 -20 l41 0 l0 41 l-41 0 Z"/><path id="H3" class="cell dark" d="M340 260 m-20 -20 l40 0 l0 41 l-40 0 Z"/><path id="A2" class="cell dark" d="M60 300 m-20 -20 l41 0 l0 41 l-41 0 Z"/><path id="B2" class="cell light" d="M100 300 m-20 -20 l41 0 l0 41 l-41 0 Z"/><path id="C2" class="cell dark" d="M140 300 m-20 -20 l41 0 l0 41 l-41 0 Z"/><path id="D2" class="cell light" d="M180 300 m-20 -20 l41 0 l0 41 l-41 0 Z"/><path id="E2" class="cell dark" d="M220 300 m-20 -20 l41 0 l0 41 l-41 0 Z"/><path id="F2" class="cell light" d="M260 300 m-20 -20 l41 0 l0 41 l-41 0 Z"/><path id="G2" class="cell dark" d="M300 300 m-20 -20 l41 0 l0 41 l-41 0 Z"/><path id="H2" class="cell light" d="M340 300 m-20 -20 l40 0 l0 41 l-40 0 Z"/><path id="A1" class="cell light" d="M60 340 m-20 -20 l41 0 l0 40 l-41 0 Z"/><path id="B1" class="cell dark" d="M100 340 m-20 -20 l41 0 l0 40 l-41 0 Z"/><path id="C1" class="cell light" d="M140 340 m-20 -20 l41 0 l0 40 l-41 0 Z"/><path id="D1" class="cell dark" d="M180 340 m-20 -20 l41 0 l0 40 l-41 0 Z"/><path id="E1" class="cell light" d="M220 340 m-20 -20 l41 0 l0 40 l-41 0 Z"/><path id="F1" class="cell dark" d="M260 340 m-20 -20 l41 0 l0 40 l-41 0 Z"/><path id="G1" class="cell light" d="M300 340 m-20 -20 l41 0 l0 40 l-41 0 Z"/><path id="H1" class="cell dark" d="M340 340 m-20 -20 l40 0 l0 40 l-40 0 Z"/><use id="p1" class="piece white" x="60" y="340" xmlns:xlink="http://www.w3.org/1999/xlink" xlink:href="#rook_white"/><use id="p2" class="piece white" x="100" y="340" xmlns:xlink="http://www.w3.org/1999/xlink" xlink:href="#knight_white"/><use id="p3" class="piece white" x="140" y="340" xmlns:xlink="http://www.w3.org/1999/xlink" xlink:href="#bishop_white"/><use id="p4" class="piece white" x="180" y="340" xmlns:xlink="http://www.w3.org/1999/xlink" xlink:href="#king_white"/><use id="p5" class="piece white" x="220" y="340" xmlns:xlink="http://www.w3.org/1999/xlink" xlink:href="#queen_white"/><use id="p6" class="piece white" x="260" y="340" xmlns:xlink="http://www.w3.org/1999/xlink" xlink:href="#bishop_white"/><use id="p7" class="piece white" x="300" y="340" xmlns:xlink="http://www.w3.org/1999/xlink" xlink:href="#knight_white"/><use id="p8" class="piece white" x="340" y="340" xmlns:xlink="http://www.w3.org/1999/xlink" xlink:href="#rook_white"/><use id="p9" class="piece white" x="60" y="300" xmlns:xlink="http://www.w3.org/1999/xlink" xlink:href="#pawn_white"/><use id="p10" class="piece white" x="100" y="300" xmlns:xlink="http://www.w3.org/1999/xlink" xlink:href="#pawn_white"/><use id="p11" class="piece white" x="140" y="300" xmlns:xlink="http://www.w3.org/1999/xlink" xlink:href="#pawn_white"/><use id="p12" class="piece white" x="180" y="300" xmlns:xlink="http://www.w3.org/1999/xlink" xlink:href="#pawn_white"/><use id="p13" class="piece white" x="220" y="300" xmlns:xlink="http://www.w3.org/1999/xlink" xlink:href="#pawn_white"/><use id="p14" class="piece white" x="260" y="300" xmlns:xlink="http://www.w3.org/1999/xlink" xlink:href="#pawn_white"/><use id="p15" class="piece white" x="300" y="300" xmlns:xlink="http://www.w3.org/1999/xlink" xlink:href="#pawn_white"/><use id="p16" class="piece white" x="340" y="300" xmlns:xlink="http://www.w3.org/1999/xlink" xlink:href="#pawn_white"/><use id="p17" class="piece black" x="60" y="60" xmlns:xlink="http://www.w3.org/1999/xlink" xlink:href="#rook_black"/><use id="p18" class="piece black" x="100" y="60" xmlns:xlink="http://www.w3.org/1999/xlink" xlink:href="#knight_black"/><use id="p19" class="piece black" x="140" y="60" xmlns:xlink="http://www.w3.org/1999/xlink" xlink:href="#bishop_black"/><use id="p20" class="piece black" x="180" y="60" xmlns:xlink="http://www.w3.org/1999/xlink" xlink:href="#king_black"/><use id="p21" class="piece black" x="220" y="60" xmlns:xlink="http://www.w3.org/1999/xlink" xlink:href="#queen_black"/><use id="p22" class="piece black" x="260" y="60" xmlns:xlink="http://www.w3.org/1999/xlink" xlink:href="#bishop_black"/><use id="p23" class="piece black" x="300" y="60" xmlns:xlink="http://www.w3.org/1999/xlink" xlink:href="#knight_black"/><use id="p24" class="piece black" x="340" y="60" xmlns:xlink="http://www.w3.org/1999/xlink" xlink:href="#rook_black"/><use id="p25" class="piece black" x="60" y="100" xmlns:xlink="http://www.w3.org/1999/xlink" xlink:href="#pawn_black"/><use id="p26" class="piece black" x="100" y="100" xmlns:xlink="http://www.w3.org/1999/xlink" xlink:href="#pawn_black"/><use id="p27" class="piece black" x="140" y="100" xmlns:xlink="http://www.w3.org/1999/xlink" xlink:href="#pawn_black"/><use id="p28" class="piece black" x="180" y="100" xmlns:xlink="http://www.w3.org/1999/xlink" xlink:href="#pawn_black"/><use id="p29" class="piece black" x="220" y="100" xmlns:xlink="http://www.w3.org/1999/xlink" xlink:href="#pawn_black"/><use id="p30" class="piece black" x="260" y="100" xmlns:xlink="http://www.w3.org/1999/xlink" xlink:href="#pawn_black"/><use id="p31" class="piece black" x="300" y="100" xmlns:xlink="http://www.w3.org/1999/xlink" xlink:href="#pawn_black"/><use id="p32" class="piece black" x="340" y="100" xmlns:xlink="http://www.w3.org/1999/xlink" xlink:href="#pawn_black"/></svg>